<?xml version="1.0" encoding="utf-8"?>
<!-- Generator: Adobe Illustrator 23.1.1, SVG Export Plug-In . SVG Version: 6.00 Build 0)  -->
<svg version="1.1" id="图层_1" xmlns="http://www.w3.org/2000/svg" xmlns:xlink="http://www.w3.org/1999/xlink" x="0px" y="0px"
	 viewBox="0 0 757.9 372.3" style="enable-background:new 0 0 757.9 372.3;" xml:space="preserve">
<style type="text/css">
	.st0{fill:none;}
	.st1{fill:#D8D8D9;}
	.st2{font-family:'Hack-Bold';}
	.st3{font-size:153.4838px;}
	.st4{fill:#777676;}
</style>
<rect x="164.2" y="69.4" class="st0" width="738.9" height="162.6"/>
<text transform="matrix(1 0 0 1 164.1842 202.1336)" class="st1 st2 st3">cuilei</text>
<g transform="translate(0.000000,200.000000) scale(0.100000,-0.100000)">
	<path class="st1" d="M406.1,1766.5c-58.8-51.3-40.2-21.8-40.2-739.5V376.9l27.8-1c30.8-1,139-1,193.6,0l36.7,1V1035
		c-1,649.2-11.6,679.6-32.4,712.3C564.3,1787,461.1,1810.1,406.1,1766.5z"/>
	<path class="st4" d="M213,1583.9c-65.5-67.5-122.1-131-126.1-140.9c-4-9.9-7.9-296.8-7.9-637.2c-1-662.1-2-646.2,48.6-691.8
		C148.5,95,165.4,94,627.9,91c522.1-2,508.2-4,548.9,56.6c43.7,64.5,18.9,149.9-50.6,179.7c-35.7,14.9-83.4,16.9-414.9,15.9
		l-375.2-1v44.7c-1,24.8-1,331.5-1,682.9c0,350.4-1,637.2-2,636.2C332.2,1706,277.6,1650.4,213,1583.9z"/>
	<path class="st1" d="M1227.5,195.2c-6-53.6-38.7-100.3-86.4-122.1c-31.8-15.9-82.4-16.9-492.3-16.9c-251.1,0-469.5,3-485.4,6.9
		c-22.8,6-4-17.9,94.3-114.1c67.5-66.5,138-127.1,155.8-134c43.7-18.9,905.2-19.9,938-1c39.7,22.8,58.6,41.7,77.4,78.4
		c22.8,44.7,23.8,92.3,1,134c-14.9,27.8-105.2,127.1-172.7,189.6l-24.8,22.8L1227.5,195.2z"/>
</g>
<rect x="180.3" y="69.4" class="st0" width="738.9" height="162.6"/>
<text transform="matrix(1 0 0 1 180.2995 202.1336)" class="st4 st2 st3">cuilei</text>
</svg>
