<?xml version="1.0" standalone="no"?>
<!DOCTYPE svg PUBLIC "-//W3C//DTD SVG 20010904//EN"
 "http://www.w3.org/TR/2001/REC-SVG-20010904/DTD/svg10.dtd">
<svg version="1.0" xmlns="http://www.w3.org/2000/svg"
 width="200.000000pt" height="200.000000pt" viewBox="0 0 200.000000 200.000000"
 preserveAspectRatio="xMidYMid meet">
<metadata>
Created by potrace 1.11, written by Peter Selinger 2001-2013
</metadata>
<g transform="translate(0.000000,200.000000) scale(0.100000,-0.100000)"
fill="#000000" stroke="none">
<path d="M662 1980 c-63 -39 -62 -22 -62 -745 l0 -655 28 -1 c31 -1 140 -1
195 0 l37 1 0 663 c-1 654 -1 662 -22 695 -38 60 -117 79 -176 42z"/>
<path d="M446 1796 c-66 -68 -123 -132 -127 -142 -4 -10 -8 -299 -8 -642 -1
-667 -2 -651 49 -697 21 -19 38 -20 504 -23 526 -2 512 -4 553 57 44 65 19
151 -51 181 -36 15 -84 17 -418 16 l-378 -1 0 45 c-1 25 -1 334 -1 688 0 353
-1 642 -2 641 -1 0 -56 -56 -121 -123z"/>
<path d="M1468 397 c-6 -54 -39 -101 -87 -123 -32 -16 -83 -17 -496 -17 -253
0 -473 3 -489 7 -23 6 -4 -18 95 -115 68 -67 139 -128 157 -135 44 -19 912
-20 945 -1 40 23 59 42 78 79 23 45 24 93 1 135 -15 28 -106 128 -174 191
l-25 23 -5 -44z"/>
</g>
</svg>
