<svg id="图层_1" data-name="图层 1" xmlns="http://www.w3.org/2000/svg" viewBox="0 0 377.06 132.25"><defs><style>.cls-1,.cls-4{font-size:72px;font-family:Hack-Bold, Hack;font-weight:700;}.cls-1,.cls-2{fill:#d8d8d9;}.cls-3,.cls-4{fill:#777676;}</style></defs><title>cuilei-logo-all1</title><text class="cls-1" transform="translate(93.2 104.91)">cuilei</text><path class="cls-2" d="M35.23,16.35c-2.75,2.4-1.88,1-1.88,34.68v30.5l1.3,0c1.44,0,6.52,0,9.08,0l1.72,0V50.66c0-30.45-.54-31.88-1.52-33.41C42.65,15.38,37.81,14.3,35.23,16.35Z"/><path class="cls-3" d="M26.18,24.91a67.73,67.73,0,0,0-5.92,6.61c-.18.47-.37,13.93-.37,29.9-.05,31.06-.09,30.31,2.28,32.45,1,.89,1.77.93,23.47,1.07,24.49.1,23.84.19,25.75-2.65A5.65,5.65,0,0,0,69,83.86c-1.67-.7-3.91-.79-19.46-.74l-17.6,0V81.07c-.05-1.17-.05-15.55-.05-32s0-29.89-.09-29.84S29.2,21.79,26.18,24.91Z"/><path class="cls-2" d="M73.76,90.05a7.12,7.12,0,0,1-4.05,5.73c-1.49.75-3.86.79-23.09.79-11.78,0-22-.14-22.77-.32-1.07-.28-.19.84,4.42,5.35,3.17,3.12,6.47,6,7.31,6.29,2.05.88,42.47.93,44,0a7.93,7.93,0,0,0,3.64-3.67,6.56,6.56,0,0,0,0-6.29c-.7-1.3-4.93-6-8.1-8.89L74,88Z"/><text class="cls-4" transform="translate(100.76 104.91)">cuilei</text></svg>