<svg id="图层_1" data-name="图层 1" xmlns="http://www.w3.org/2000/svg" viewBox="0 0 427.5 118.04"><defs><style>.cls-1,.cls-4{font-size:72px;font-family:Hack-Bold, Hack;font-weight:700;}.cls-1,.cls-2{fill:#d8d8d9;}.cls-3,.cls-4{fill:#777676;}</style></defs><title>cuilei-logo-all</title><text class="cls-1" transform="translate(73.32 89.66)">cuilei</text><path class="cls-2" d="M40.18,16.35c-2.76,2.4-1.89,1-1.89,34.68v30.5l1.31,0c1.44,0,6.52,0,9.08,0l1.72,0V50.66c0-30.45-.54-31.88-1.52-33.41C47.6,15.38,42.76,14.3,40.18,16.35Z" transform="translate(-24.82 -15.24)"/><path class="cls-3" d="M31.12,24.91a68.46,68.46,0,0,0-5.91,6.61c-.19.47-.37,13.93-.37,29.9-.05,31.06-.1,30.31,2.28,32.45,1,.89,1.77.93,23.47,1.07,24.49.1,23.84.19,25.74-2.65A5.64,5.64,0,0,0,74,83.86c-1.68-.7-3.91-.79-19.46-.74l-17.6,0V81.07c0-1.17,0-15.55,0-32s-.05-29.89-.09-29.84S34.15,21.79,31.12,24.91Z" transform="translate(-24.82 -15.24)"/><path class="cls-2" d="M78.71,90.05a7.14,7.14,0,0,1-4,5.73c-1.49.75-3.87.79-23.1.79-11.78,0-22-.14-22.77-.32-1.07-.28-.18.84,4.43,5.35,3.16,3.12,6.47,6,7.31,6.29,2,.88,42.46.93,44,0a7.91,7.91,0,0,0,3.63-3.67,6.57,6.57,0,0,0,0-6.29c-.7-1.3-4.94-6-8.1-8.89L78.94,88Z" transform="translate(-24.82 -15.24)"/><text class="cls-4" transform="translate(80.88 89.66)">cuilei</text></svg>