<?xml version="1.0" encoding="utf-8"?>
<!-- Generator: Adobe Illustrator 23.1.1, SVG Export Plug-In . SVG Version: 6.00 Build 0)  -->
<svg version="1.1" id="图层_1" xmlns="http://www.w3.org/2000/svg" xmlns:xlink="http://www.w3.org/1999/xlink" x="0px" y="0px"
	 viewBox="0 0 757.9 430.8" style="enable-background:new 0 0 757.9 430.8;" xml:space="preserve">
<style type="text/css">
	.st0{fill:none;}
	.st1{fill:#D8D8D9;}
	.st2{font-family:'PingFangSC-Light-GBpc-EUC-H';}
	.st3{font-size:153.4838px;}
	.st4{fill:#777676;}
</style>
<rect x="289.1" y="41.8" class="st0" width="738.9" height="162.6"/>
<text transform="matrix(1 0 0 1 289.1003 173.7571)" class="st1 st2 st3">崔磊</text>
<rect x="282.9" y="41.8" class="st0" width="738.9" height="162.6"/>
<text transform="matrix(1 0 0 1 282.869 173.7571)" class="st4 st2 st3">崔磊</text>
<g transform="translate(0.000000,200.000000) scale(0.100000,-0.100000)">
	<path class="st1" d="M1655.3,1711.9c-58.8-51.3-40.2-21.8-40.2-739.5V322.3l27.8-1c30.8-1,139-1,193.6,0l36.7,1v658.1
		c-1,649.2-11.6,679.6-32.4,712.3C1813.5,1732.4,1710.3,1755.5,1655.3,1711.9z"/>
	<path class="st4" d="M1462.2,1529.3c-65.5-67.5-122.1-131-126.1-140.9c-4-9.9-7.9-296.8-7.9-637.2c-1-662.1-2-646.2,48.6-691.8
		c20.8-18.9,37.7-19.9,500.3-22.8c522.1-2,508.2-4,548.9,56.6c43.7,64.5,18.9,149.9-50.6,179.7c-35.7,14.9-83.4,16.9-414.9,15.9
		l-375.2-1v44.7c-1,24.8-1,331.5-1,682.9c0,350.4-1,637.2-2,636.2C1581.3,1651.4,1526.7,1595.8,1462.2,1529.3z"/>
	<path class="st1" d="M2476.6,140.7c-6-53.6-38.7-100.3-86.4-122.1C2358.5,2.7,2307.9,1.7,1898,1.7c-251.1,0-469.5,3-485.4,6.9
		c-22.8,6-4-17.9,94.3-114.1c67.5-66.5,138-127.1,155.8-134c43.7-18.9,905.2-19.9,938-1c39.7,22.8,58.6,41.7,77.4,78.4
		c22.8,44.7,23.8,92.3,1,134C2664.2-0.3,2573.9,99,2506.4,161.5l-24.8,22.8L2476.6,140.7z"/>
</g>
</svg>
